<mxfile host="www.draw.io" modified="2020-03-04T15:41:24.335Z" agent="Mozilla/5.0 (Windows NT 10.0; Win64; x64) AppleWebKit/537.36 (KHTML, like Gecko) Chrome/79.0.3945.130 Safari/537.36" etag="O_GQ0xrIgzoNFSdjdm_x" version="12.7.9" type="github">
  <diagram id="jKemJFioccQv87u1pYmC" name="Page-1">
    <mxGraphModel dx="1422" dy="1962" grid="1" gridSize="10" guides="1" tooltips="1" connect="1" arrows="1" fold="1" page="1" pageScale="1" pageWidth="1920" pageHeight="1200" math="0" shadow="0">
      <root>
        <mxCell id="0" />
        <mxCell id="1" parent="0" />
        <mxCell id="Iaqma_gAGSdu3FMLk_lc-46" value="" style="rounded=0;whiteSpace=wrap;html=1;" vertex="1" parent="1">
          <mxGeometry x="1640" y="140" width="730" height="1040" as="geometry" />
        </mxCell>
        <mxCell id="Iaqma_gAGSdu3FMLk_lc-69" value="" style="rounded=0;whiteSpace=wrap;html=1;fillColor=#d5e8d4;strokeColor=#82b366;" vertex="1" parent="1">
          <mxGeometry x="1680" y="460" width="660" height="690" as="geometry" />
        </mxCell>
        <mxCell id="Iaqma_gAGSdu3FMLk_lc-70" value="Question.vue" style="rounded=0;whiteSpace=wrap;html=1;fillColor=#dae8fc;strokeColor=#6c8ebf;" vertex="1" parent="1">
          <mxGeometry x="2090" y="1080" width="220" height="50" as="geometry" />
        </mxCell>
        <mxCell id="Iaqma_gAGSdu3FMLk_lc-34" value="" style="rounded=0;whiteSpace=wrap;html=1;" vertex="1" parent="1">
          <mxGeometry x="620" y="140" width="920" height="1040" as="geometry" />
        </mxCell>
        <mxCell id="Iaqma_gAGSdu3FMLk_lc-67" value="" style="rounded=0;whiteSpace=wrap;html=1;fillColor=#d5e8d4;strokeColor=#82b366;" vertex="1" parent="1">
          <mxGeometry x="850" y="410" width="660" height="690" as="geometry" />
        </mxCell>
        <mxCell id="Iaqma_gAGSdu3FMLk_lc-2" value="" style="rounded=0;whiteSpace=wrap;html=1;" vertex="1" parent="1">
          <mxGeometry x="1180" y="490" width="310" height="250" as="geometry" />
        </mxCell>
        <mxCell id="Iaqma_gAGSdu3FMLk_lc-3" value="QuestionOrContentRepeatable.vue" style="rounded=0;whiteSpace=wrap;html=1;fillColor=#d5e8d4;strokeColor=#82b366;" vertex="1" parent="1">
          <mxGeometry x="680" y="170" width="261" height="54" as="geometry" />
        </mxCell>
        <mxCell id="Iaqma_gAGSdu3FMLk_lc-6" value="QStepper:&lt;br&gt;-Create New Question" style="rounded=0;whiteSpace=wrap;html=1;fillColor=#dae8fc;strokeColor=#6c8ebf;" vertex="1" parent="1">
          <mxGeometry x="870" y="430" width="280" height="60" as="geometry" />
        </mxCell>
        <mxCell id="Iaqma_gAGSdu3FMLk_lc-7" value="Page 1:" style="rounded=0;whiteSpace=wrap;html=1;fillColor=#dae8fc;strokeColor=#6c8ebf;" vertex="1" parent="1">
          <mxGeometry x="870" y="490" width="280" height="30" as="geometry" />
        </mxCell>
        <mxCell id="Iaqma_gAGSdu3FMLk_lc-8" value="&lt;b&gt;Select Question Grouping &amp;amp; Question #&lt;/b&gt;&lt;br&gt;&lt;div&gt;&lt;font color=&quot;#ff0000&quot;&gt;If number is already taken:&amp;nbsp;&lt;/font&gt;&lt;/div&gt;&lt;div&gt;&lt;font color=&quot;#ff0000&quot;&gt;&amp;nbsp; &amp;nbsp; &amp;nbsp; &amp;nbsp; &amp;nbsp; &amp;nbsp; &amp;nbsp; &amp;nbsp; &amp;nbsp; &amp;nbsp; &amp;nbsp; &amp;nbsp; &amp;nbsp; &amp;nbsp; - We&#39;ll just use: let arrDeletedItems = array.splice(start[, deleteCount[, item1[, item2[, ...]]]])&amp;nbsp;&amp;nbsp;&lt;/font&gt;&lt;/div&gt;" style="rounded=0;whiteSpace=wrap;html=1;" vertex="1" parent="1">
          <mxGeometry x="870" y="520" width="280" height="110" as="geometry" />
        </mxCell>
        <mxCell id="Iaqma_gAGSdu3FMLk_lc-9" value="Page 2:" style="rounded=0;whiteSpace=wrap;html=1;fillColor=#dae8fc;strokeColor=#6c8ebf;" vertex="1" parent="1">
          <mxGeometry x="870" y="630" width="280" height="30" as="geometry" />
        </mxCell>
        <mxCell id="Iaqma_gAGSdu3FMLk_lc-10" value="&lt;b&gt;Select Question Type: (radio)&lt;/b&gt;&lt;br&gt;&lt;div style=&quot;text-align: left&quot;&gt;&lt;span&gt;standard&lt;/span&gt;&lt;/div&gt;&lt;div style=&quot;text-align: left&quot;&gt;&lt;span&gt;matrix&lt;/span&gt;&lt;/div&gt;&lt;div style=&quot;text-align: left&quot;&gt;&lt;span&gt;demo&lt;/span&gt;&lt;/div&gt;&lt;div style=&quot;text-align: left&quot;&gt;&lt;span&gt;confidence&lt;/span&gt;&lt;/div&gt;" style="rounded=0;whiteSpace=wrap;html=1;" vertex="1" parent="1">
          <mxGeometry x="870" y="660" width="280" height="80" as="geometry" />
        </mxCell>
        <mxCell id="Iaqma_gAGSdu3FMLk_lc-11" value="Page 3:" style="rounded=0;whiteSpace=wrap;html=1;fillColor=#dae8fc;strokeColor=#6c8ebf;" vertex="1" parent="1">
          <mxGeometry x="870" y="740" width="280" height="30" as="geometry" />
        </mxCell>
        <mxCell id="Iaqma_gAGSdu3FMLk_lc-12" value="&lt;b&gt;Question Configuration: (checkboxes)&lt;/b&gt;&amp;nbsp;&lt;br&gt;&lt;div style=&quot;text-align: left&quot;&gt;&lt;span&gt;- Required&amp;nbsp;&lt;/span&gt;&lt;/div&gt;&lt;div style=&quot;text-align: left&quot;&gt;&lt;span&gt;-ShowPoll&amp;nbsp;&lt;/span&gt;&lt;/div&gt;&lt;div style=&quot;text-align: left&quot;&gt;&lt;span&gt;-showRightWrong&amp;nbsp;&lt;/span&gt;&lt;/div&gt;&lt;div style=&quot;text-align: left&quot;&gt;&lt;span&gt;-multipleAnswers&lt;/span&gt;&lt;/div&gt;&lt;div style=&quot;text-align: left&quot;&gt;&lt;span&gt;&lt;br&gt;&lt;/span&gt;&lt;/div&gt;&lt;div style=&quot;text-align: left&quot;&gt;&lt;span&gt;&lt;b&gt;Number of Choices (numeric input)&lt;/b&gt;&lt;/span&gt;&lt;/div&gt;" style="rounded=0;whiteSpace=wrap;html=1;" vertex="1" parent="1">
          <mxGeometry x="870" y="770" width="280" height="120" as="geometry" />
        </mxCell>
        <mxCell id="Iaqma_gAGSdu3FMLk_lc-13" value="Page 4:" style="rounded=0;whiteSpace=wrap;html=1;fillColor=#dae8fc;strokeColor=#6c8ebf;" vertex="1" parent="1">
          <mxGeometry x="870" y="890" width="280" height="30" as="geometry" />
        </mxCell>
        <mxCell id="Iaqma_gAGSdu3FMLk_lc-14" value="Question Content:&lt;br&gt;&lt;b&gt;Intro (WYSIWYG)&lt;br&gt;Question (WYSIWYG)&lt;br&gt;Choices (inputs, number set on page 3)&lt;br&gt;Correct Choice (checkbox per choice?)&lt;br&gt;Answer Explanation (WYSIWYG)&lt;/b&gt;" style="rounded=0;whiteSpace=wrap;html=1;" vertex="1" parent="1">
          <mxGeometry x="870" y="920" width="280" height="120" as="geometry" />
        </mxCell>
        <mxCell id="Iaqma_gAGSdu3FMLk_lc-15" value="&lt;b&gt;Finish&lt;/b&gt;" style="rounded=0;whiteSpace=wrap;html=1;fillColor=#dae8fc;strokeColor=#6c8ebf;" vertex="1" parent="1">
          <mxGeometry x="870" y="1040" width="90" height="30" as="geometry" />
        </mxCell>
        <mxCell id="Iaqma_gAGSdu3FMLk_lc-16" value="&lt;b&gt;Back&lt;/b&gt;" style="rounded=0;whiteSpace=wrap;html=1;fillColor=#dae8fc;strokeColor=#6c8ebf;" vertex="1" parent="1">
          <mxGeometry x="960" y="1040" width="100" height="30" as="geometry" />
        </mxCell>
        <mxCell id="Iaqma_gAGSdu3FMLk_lc-17" value="&lt;b&gt;Reset&lt;/b&gt;" style="rounded=0;whiteSpace=wrap;html=1;fillColor=#dae8fc;strokeColor=#6c8ebf;" vertex="1" parent="1">
          <mxGeometry x="1060" y="1040" width="90" height="30" as="geometry" />
        </mxCell>
        <mxCell id="Iaqma_gAGSdu3FMLk_lc-18" value="" style="endArrow=classic;html=1;strokeColor=#000000;" edge="1" parent="1">
          <mxGeometry width="50" height="50" relative="1" as="geometry">
            <mxPoint x="1150" y="570" as="sourcePoint" />
            <mxPoint x="1180" y="570" as="targetPoint" />
          </mxGeometry>
        </mxCell>
        <mxCell id="Iaqma_gAGSdu3FMLk_lc-19" value="QCard:&lt;br&gt;-Question Summary&lt;br&gt;- Abbreviated" style="rounded=0;whiteSpace=wrap;html=1;fillColor=#dae8fc;strokeColor=#6c8ebf;align=center;" vertex="1" parent="1">
          <mxGeometry x="1220" y="560" width="240" height="60" as="geometry" />
        </mxCell>
        <mxCell id="Iaqma_gAGSdu3FMLk_lc-20" value="Question Group" style="rounded=0;whiteSpace=wrap;html=1;fillColor=#dae8fc;strokeColor=#6c8ebf;" vertex="1" parent="1">
          <mxGeometry x="1180" y="430" width="310" height="60" as="geometry" />
        </mxCell>
        <mxCell id="Iaqma_gAGSdu3FMLk_lc-21" value="Position&lt;br&gt;Number" style="rounded=0;whiteSpace=wrap;html=1;fillColor=#ffe6cc;strokeColor=#d79b00;" vertex="1" parent="1">
          <mxGeometry x="1220" y="560" width="50" height="60" as="geometry" />
        </mxCell>
        <mxCell id="Iaqma_gAGSdu3FMLk_lc-30" value="QCard:&lt;br&gt;-Question Summary&lt;br&gt;- Abbreviated" style="rounded=0;whiteSpace=wrap;html=1;fillColor=#dae8fc;strokeColor=#6c8ebf;align=center;" vertex="1" parent="1">
          <mxGeometry x="1220" y="640" width="240" height="60" as="geometry" />
        </mxCell>
        <mxCell id="Iaqma_gAGSdu3FMLk_lc-31" value="Position&lt;br&gt;Number" style="rounded=0;whiteSpace=wrap;html=1;fillColor=#ffe6cc;strokeColor=#d79b00;" vertex="1" parent="1">
          <mxGeometry x="1220" y="640" width="50" height="60" as="geometry" />
        </mxCell>
        <mxCell id="Iaqma_gAGSdu3FMLk_lc-35" value="&lt;font style=&quot;font-size: 20px&quot;&gt;&lt;b&gt;interQ?&lt;/b&gt;&lt;/font&gt;" style="rhombus;whiteSpace=wrap;html=1;fillColor=#fff2cc;strokeColor=#d6b656;" vertex="1" parent="1">
          <mxGeometry x="1460" y="-70" width="110" height="110" as="geometry" />
        </mxCell>
        <mxCell id="Iaqma_gAGSdu3FMLk_lc-36" value="&lt;font style=&quot;font-size: 23px&quot;&gt;no&lt;/font&gt;" style="edgeStyle=orthogonalEdgeStyle;html=1;align=left;verticalAlign=bottom;endArrow=open;endSize=8;strokeColor=#ff0000;entryX=0.178;entryY=-0.003;entryDx=0;entryDy=0;entryPerimeter=0;" edge="1" source="Iaqma_gAGSdu3FMLk_lc-35" parent="1" target="Iaqma_gAGSdu3FMLk_lc-46">
          <mxGeometry x="-1" relative="1" as="geometry">
            <mxPoint x="1770" y="150" as="targetPoint" />
          </mxGeometry>
        </mxCell>
        <mxCell id="Iaqma_gAGSdu3FMLk_lc-37" value="&lt;font style=&quot;font-size: 21px&quot;&gt;yes&lt;/font&gt;" style="edgeStyle=orthogonalEdgeStyle;html=1;align=left;verticalAlign=top;endArrow=open;endSize=8;strokeColor=#ff0000;entryX=0.568;entryY=0.002;entryDx=0;entryDy=0;entryPerimeter=0;" edge="1" source="Iaqma_gAGSdu3FMLk_lc-35" parent="1" target="Iaqma_gAGSdu3FMLk_lc-34">
          <mxGeometry x="-1" relative="1" as="geometry">
            <mxPoint x="1060" y="150" as="targetPoint" />
            <Array as="points">
              <mxPoint x="1515" y="50" />
              <mxPoint x="1143" y="50" />
            </Array>
          </mxGeometry>
        </mxCell>
        <mxCell id="Iaqma_gAGSdu3FMLk_lc-40" value="Question or Content" style="rhombus;whiteSpace=wrap;html=1;fillColor=#fff2cc;strokeColor=#d6b656;" vertex="1" parent="1">
          <mxGeometry x="1020" y="215" width="100" height="90" as="geometry" />
        </mxCell>
        <mxCell id="Iaqma_gAGSdu3FMLk_lc-41" value="&lt;font style=&quot;font-size: 15px&quot;&gt;Content&lt;/font&gt;" style="edgeStyle=orthogonalEdgeStyle;html=1;align=left;verticalAlign=bottom;endArrow=open;endSize=8;strokeColor=#ff0000;entryX=0;entryY=0.5;entryDx=0;entryDy=0;" edge="1" source="Iaqma_gAGSdu3FMLk_lc-40" parent="1" target="Iaqma_gAGSdu3FMLk_lc-45">
          <mxGeometry x="1" y="-82" relative="1" as="geometry">
            <mxPoint x="1215" y="170" as="targetPoint" />
            <Array as="points">
              <mxPoint x="1240" y="195" />
            </Array>
            <mxPoint x="2" y="20" as="offset" />
          </mxGeometry>
        </mxCell>
        <mxCell id="Iaqma_gAGSdu3FMLk_lc-42" value="&lt;font style=&quot;font-size: 15px&quot;&gt;Question&lt;/font&gt;" style="edgeStyle=orthogonalEdgeStyle;html=1;align=left;verticalAlign=top;endArrow=open;endSize=8;strokeColor=#ff0000;exitX=0.5;exitY=1;exitDx=0;exitDy=0;" edge="1" source="Iaqma_gAGSdu3FMLk_lc-40" parent="1" target="Iaqma_gAGSdu3FMLk_lc-6">
          <mxGeometry x="-0.6944" relative="1" as="geometry">
            <mxPoint x="900" y="220" as="targetPoint" />
            <Array as="points">
              <mxPoint x="1065" y="360" />
              <mxPoint x="1065" y="360" />
            </Array>
            <mxPoint as="offset" />
          </mxGeometry>
        </mxCell>
        <mxCell id="Iaqma_gAGSdu3FMLk_lc-44" value="" style="html=1;" vertex="1" parent="1">
          <mxGeometry x="1240" y="170" width="240" height="180" as="geometry" />
        </mxCell>
        <mxCell id="Iaqma_gAGSdu3FMLk_lc-45" value="WYSIWYG Content Editor" style="rounded=0;whiteSpace=wrap;html=1;fillColor=#dae8fc;strokeColor=#6c8ebf;" vertex="1" parent="1">
          <mxGeometry x="1240" y="170" width="240" height="60" as="geometry" />
        </mxCell>
        <mxCell id="Iaqma_gAGSdu3FMLk_lc-47" value="Content.vue" style="rounded=0;whiteSpace=wrap;html=1;fillColor=#d5e8d4;strokeColor=#82b366;" vertex="1" parent="1">
          <mxGeometry x="1670" y="173" width="261" height="54" as="geometry" />
        </mxCell>
        <mxCell id="Iaqma_gAGSdu3FMLk_lc-48" value="" style="html=1;" vertex="1" parent="1">
          <mxGeometry x="1750" y="270" width="490" height="180" as="geometry" />
        </mxCell>
        <mxCell id="Iaqma_gAGSdu3FMLk_lc-49" value="WYSIWYG Content Editor" style="rounded=0;whiteSpace=wrap;html=1;fillColor=#dae8fc;strokeColor=#6c8ebf;" vertex="1" parent="1">
          <mxGeometry x="1750" y="270" width="490" height="60" as="geometry" />
        </mxCell>
        <mxCell id="Iaqma_gAGSdu3FMLk_lc-50" value="Single static Editor component" style="rounded=0;whiteSpace=wrap;html=1;" vertex="1" parent="1">
          <mxGeometry x="1750" y="330" width="490" height="120" as="geometry" />
        </mxCell>
        <mxCell id="Iaqma_gAGSdu3FMLk_lc-51" value="" style="rounded=0;whiteSpace=wrap;html=1;" vertex="1" parent="1">
          <mxGeometry x="2010" y="540" width="310" height="250" as="geometry" />
        </mxCell>
        <mxCell id="Iaqma_gAGSdu3FMLk_lc-52" value="QStepper:&lt;br&gt;-Create New Question" style="rounded=0;whiteSpace=wrap;html=1;fillColor=#dae8fc;strokeColor=#6c8ebf;" vertex="1" parent="1">
          <mxGeometry x="1700" y="480" width="280" height="60" as="geometry" />
        </mxCell>
        <mxCell id="Iaqma_gAGSdu3FMLk_lc-53" value="Page 1:" style="rounded=0;whiteSpace=wrap;html=1;fillColor=#dae8fc;strokeColor=#6c8ebf;" vertex="1" parent="1">
          <mxGeometry x="1700" y="540" width="280" height="30" as="geometry" />
        </mxCell>
        <mxCell id="Iaqma_gAGSdu3FMLk_lc-54" value="&lt;b&gt;Select Question Grouping &amp;amp; Question #&lt;/b&gt;&lt;br&gt;&lt;div&gt;&lt;font color=&quot;#ff0000&quot;&gt;If number is already taken:&amp;nbsp;&lt;/font&gt;&lt;/div&gt;&lt;div&gt;&lt;font color=&quot;#ff0000&quot;&gt;&amp;nbsp; &amp;nbsp; &amp;nbsp; &amp;nbsp; &amp;nbsp; &amp;nbsp; &amp;nbsp; &amp;nbsp; &amp;nbsp; &amp;nbsp; &amp;nbsp; &amp;nbsp; &amp;nbsp; &amp;nbsp; - We&#39;ll just use: let arrDeletedItems = array.splice(start[, deleteCount[, item1[, item2[, ...]]]])&amp;nbsp;&amp;nbsp;&lt;/font&gt;&lt;/div&gt;" style="rounded=0;whiteSpace=wrap;html=1;" vertex="1" parent="1">
          <mxGeometry x="1700" y="570" width="280" height="110" as="geometry" />
        </mxCell>
        <mxCell id="Iaqma_gAGSdu3FMLk_lc-55" value="Page 2:" style="rounded=0;whiteSpace=wrap;html=1;fillColor=#dae8fc;strokeColor=#6c8ebf;" vertex="1" parent="1">
          <mxGeometry x="1700" y="680" width="280" height="30" as="geometry" />
        </mxCell>
        <mxCell id="Iaqma_gAGSdu3FMLk_lc-56" value="&lt;b&gt;Select Question Type: (radio)&lt;/b&gt;&lt;br&gt;&lt;div style=&quot;text-align: left&quot;&gt;&lt;span&gt;standard&lt;/span&gt;&lt;/div&gt;&lt;div style=&quot;text-align: left&quot;&gt;&lt;span&gt;matrix&lt;/span&gt;&lt;/div&gt;&lt;div style=&quot;text-align: left&quot;&gt;&lt;span&gt;demo&lt;/span&gt;&lt;/div&gt;&lt;div style=&quot;text-align: left&quot;&gt;&lt;span&gt;confidence&lt;/span&gt;&lt;/div&gt;" style="rounded=0;whiteSpace=wrap;html=1;" vertex="1" parent="1">
          <mxGeometry x="1700" y="710" width="280" height="80" as="geometry" />
        </mxCell>
        <mxCell id="Iaqma_gAGSdu3FMLk_lc-57" value="Page 3:" style="rounded=0;whiteSpace=wrap;html=1;fillColor=#dae8fc;strokeColor=#6c8ebf;" vertex="1" parent="1">
          <mxGeometry x="1700" y="790" width="280" height="30" as="geometry" />
        </mxCell>
        <mxCell id="Iaqma_gAGSdu3FMLk_lc-58" value="&lt;b&gt;Question Configuration: (checkboxes)&lt;/b&gt;&amp;nbsp;&lt;br&gt;&lt;div style=&quot;text-align: left&quot;&gt;&lt;span&gt;- Required&amp;nbsp;&lt;/span&gt;&lt;/div&gt;&lt;div style=&quot;text-align: left&quot;&gt;&lt;span&gt;-ShowPoll&amp;nbsp;&lt;/span&gt;&lt;/div&gt;&lt;div style=&quot;text-align: left&quot;&gt;&lt;span&gt;-showRightWrong&amp;nbsp;&lt;/span&gt;&lt;/div&gt;&lt;div style=&quot;text-align: left&quot;&gt;&lt;span&gt;-multipleAnswers&lt;/span&gt;&lt;/div&gt;&lt;div style=&quot;text-align: left&quot;&gt;&lt;span&gt;&lt;br&gt;&lt;/span&gt;&lt;/div&gt;&lt;div style=&quot;text-align: left&quot;&gt;&lt;span&gt;&lt;b&gt;Number of Choices (numeric input)&lt;/b&gt;&lt;/span&gt;&lt;/div&gt;" style="rounded=0;whiteSpace=wrap;html=1;" vertex="1" parent="1">
          <mxGeometry x="1700" y="820" width="280" height="120" as="geometry" />
        </mxCell>
        <mxCell id="Iaqma_gAGSdu3FMLk_lc-59" value="Page 4:" style="rounded=0;whiteSpace=wrap;html=1;fillColor=#dae8fc;strokeColor=#6c8ebf;" vertex="1" parent="1">
          <mxGeometry x="1700" y="940" width="280" height="30" as="geometry" />
        </mxCell>
        <mxCell id="Iaqma_gAGSdu3FMLk_lc-60" value="Question Content:&lt;br&gt;&lt;b&gt;Intro (WYSIWYG)&lt;br&gt;Question (WYSIWYG)&lt;br&gt;Choices (inputs, number set on page 3)&lt;br&gt;Correct Choice (checkbox per choice?)&lt;br&gt;Answer Explanation (WYSIWYG)&lt;/b&gt;" style="rounded=0;whiteSpace=wrap;html=1;" vertex="1" parent="1">
          <mxGeometry x="1700" y="970" width="280" height="120" as="geometry" />
        </mxCell>
        <mxCell id="Iaqma_gAGSdu3FMLk_lc-61" value="" style="endArrow=classic;html=1;strokeColor=#000000;" edge="1" parent="1">
          <mxGeometry width="50" height="50" relative="1" as="geometry">
            <mxPoint x="1980" y="620" as="sourcePoint" />
            <mxPoint x="2010" y="620" as="targetPoint" />
          </mxGeometry>
        </mxCell>
        <mxCell id="Iaqma_gAGSdu3FMLk_lc-62" value="QCard:&lt;br&gt;-Question Summary&lt;br&gt;- Abbreviated" style="rounded=0;whiteSpace=wrap;html=1;fillColor=#dae8fc;strokeColor=#6c8ebf;align=center;" vertex="1" parent="1">
          <mxGeometry x="2050" y="610" width="240" height="60" as="geometry" />
        </mxCell>
        <mxCell id="Iaqma_gAGSdu3FMLk_lc-63" value="Question Group" style="rounded=0;whiteSpace=wrap;html=1;fillColor=#dae8fc;strokeColor=#6c8ebf;" vertex="1" parent="1">
          <mxGeometry x="2010" y="480" width="310" height="60" as="geometry" />
        </mxCell>
        <mxCell id="Iaqma_gAGSdu3FMLk_lc-64" value="Position&lt;br&gt;Number" style="rounded=0;whiteSpace=wrap;html=1;fillColor=#ffe6cc;strokeColor=#d79b00;" vertex="1" parent="1">
          <mxGeometry x="2050" y="610" width="50" height="60" as="geometry" />
        </mxCell>
        <mxCell id="Iaqma_gAGSdu3FMLk_lc-65" value="QCard:&lt;br&gt;-Question Summary&lt;br&gt;- Abbreviated" style="rounded=0;whiteSpace=wrap;html=1;fillColor=#dae8fc;strokeColor=#6c8ebf;align=center;" vertex="1" parent="1">
          <mxGeometry x="2050" y="690" width="240" height="60" as="geometry" />
        </mxCell>
        <mxCell id="Iaqma_gAGSdu3FMLk_lc-66" value="Position&lt;br&gt;Number" style="rounded=0;whiteSpace=wrap;html=1;fillColor=#ffe6cc;strokeColor=#d79b00;" vertex="1" parent="1">
          <mxGeometry x="2050" y="690" width="50" height="60" as="geometry" />
        </mxCell>
        <mxCell id="Iaqma_gAGSdu3FMLk_lc-68" value="Question.vue" style="rounded=0;whiteSpace=wrap;html=1;fillColor=#dae8fc;strokeColor=#6c8ebf;" vertex="1" parent="1">
          <mxGeometry x="1260" y="1030" width="220" height="50" as="geometry" />
        </mxCell>
        <mxCell id="Iaqma_gAGSdu3FMLk_lc-71" value="&lt;font style=&quot;font-size: 23px&quot;&gt;&lt;b&gt;+&lt;/b&gt;&lt;/font&gt;" style="rounded=0;whiteSpace=wrap;html=1;fillColor=#fff2cc;strokeColor=#d6b656;" vertex="1" parent="1">
          <mxGeometry x="900" y="237.5" width="70" height="45" as="geometry" />
        </mxCell>
        <mxCell id="Iaqma_gAGSdu3FMLk_lc-72" value="" style="endArrow=classic;html=1;entryX=0;entryY=0.5;entryDx=0;entryDy=0;exitX=1;exitY=0.5;exitDx=0;exitDy=0;" edge="1" parent="1" source="Iaqma_gAGSdu3FMLk_lc-71" target="Iaqma_gAGSdu3FMLk_lc-40">
          <mxGeometry width="50" height="50" relative="1" as="geometry">
            <mxPoint x="980" y="270" as="sourcePoint" />
            <mxPoint x="1030" y="220" as="targetPoint" />
          </mxGeometry>
        </mxCell>
        <mxCell id="Iaqma_gAGSdu3FMLk_lc-73" value="&lt;font style=&quot;font-size: 23px&quot;&gt;&lt;b&gt;+&lt;/b&gt;&lt;/font&gt;" style="rounded=0;whiteSpace=wrap;html=1;fillColor=#fff2cc;strokeColor=#d6b656;" vertex="1" parent="1">
          <mxGeometry x="2270" y="380" width="70" height="45" as="geometry" />
        </mxCell>
        <mxCell id="Iaqma_gAGSdu3FMLk_lc-74" value="" style="endArrow=classic;html=1;" edge="1" parent="1" target="Iaqma_gAGSdu3FMLk_lc-69">
          <mxGeometry width="50" height="50" relative="1" as="geometry">
            <mxPoint x="2290" y="430" as="sourcePoint" />
            <mxPoint x="2340" y="380" as="targetPoint" />
          </mxGeometry>
        </mxCell>
      </root>
    </mxGraphModel>
  </diagram>
</mxfile>
